<?xml version="1.0" encoding="UTF-8"?>
<svg xmlns="http://www.w3.org/2000/svg" viewBox="0 0 1200 630" role="img" aria-labelledby="title desc">
  <title id="title">VEGA</title>
  <desc id="desc">Visual-novel Engine for Graphical Adventures</desc>
  <defs>
    <linearGradient id="background" x1="0" y1="0" x2="1" y2="1">
      <stop offset="0" stop-color="#FFFFFF"/>
      <stop offset=".72" stop-color="#FFFFFF"/>
      <stop offset="1" stop-color="#F2F0FF"/>
    </linearGradient>
    <linearGradient id="accent" x1="0" y1="0" x2="1" y2="1">
      <stop offset="0" stop-color="#9B8CFF"/>
      <stop offset="1" stop-color="#6D5DFB"/>
    </linearGradient>
    <filter id="shadow" x="-30%" y="-30%" width="160%" height="160%">
      <feDropShadow dx="0" dy="14" stdDeviation="18" flood-color="#111827" flood-opacity=".09"/>
    </filter>
  </defs>
  <rect x=".5" y=".5" width="1199" height="629" rx="26" fill="url(#background)" stroke="#E8E8EA"/>
  <g transform="translate(34 98) scale(.8)">
    <g>
    <path d="M100 86L510 110L306 414Z" fill="none" stroke="#CDD0D7" stroke-width="2"/>
    <g>
    <circle cx="100" cy="86" r="28" fill="#6D5DFB" opacity=".11"/>
    <path d="M100 69L105 81L117 86L105 91L100 103L95 91L83 86L95 81Z" fill="#6D5DFB"/>
  </g>
    <g>

    <path d="M510 93L515 105L527 110L515 115L510 127L505 115L493 110L505 105Z" fill="#A7A9AF"/>
  </g>
    <g>

    <path d="M306 397L311 409L323 414L311 419L306 431L301 419L289 414L301 409Z" fill="#A7A9AF"/>
  </g>
    <g filter="url(#shadow)">
    <rect x="151" y="134" width="344" height="194" rx="20" fill="#FFFFFF" stroke="#D8DAE0" transform="rotate(5 323 231)"/>
    <rect x="136" y="145" width="344" height="194" rx="20" fill="#FFFFFF" stroke="#D8DAE0" transform="rotate(-2 308 242)"/>
    <rect x="150" y="158" width="344" height="194" rx="20" fill="url(#accent)"/>
    <path d="M150 278C230 220 286 242 345 208C390 182 433 186 494 170V352H150Z" fill="#FFFFFF" opacity=".16"/>
    <circle cx="322" cy="255" r="48" fill="#FFFFFF" opacity=".92"/>
    <path d="M310 231L348 255L310 279Z" fill="#6D5DFB"/>
    <path d="M184 319H460" stroke="#FFFFFF" stroke-opacity=".48" stroke-width="5" stroke-linecap="round"/>
    <path d="M184 319H336" stroke="#FFFFFF" stroke-width="5" stroke-linecap="round"/>
    <circle cx="336" cy="319" r="8" fill="#FFFFFF"/>
  </g>


    <text x="100" y="54" text-anchor="middle" fill="#71717A" font-family="Inter, Helvetica Neue, Arial, sans-serif" font-size="11" font-weight="600" letter-spacing="1.4">VEGA</text>
    <text x="510" y="78" text-anchor="middle" fill="#71717A" font-family="Inter, Helvetica Neue, Arial, sans-serif" font-size="11" font-weight="600" letter-spacing="1.4">DENEB</text>
    <text x="306" y="454" text-anchor="middle" fill="#71717A" font-family="Inter, Helvetica Neue, Arial, sans-serif" font-size="11" font-weight="600" letter-spacing="1.4">ALTAIR</text>
  </g>
  </g>
  <g transform="translate(566 178)">
    <text x="0" y="100" fill="#111114" font-family="Inter, Helvetica Neue, Arial, sans-serif" font-size="90" font-weight="600" letter-spacing="-4">VEGA</text>
    <text x="2" y="154" fill="#3F3F46" font-family="Inter, Helvetica Neue, Arial, sans-serif" font-size="18">Visual-novel Engine for Graphical Adventures</text>
    <line x1="2" y1="240" x2="54" y2="240" stroke="#6D5DFB" stroke-width="3" stroke-linecap="round"/>
    <text x="72" y="246" fill="#71717A" font-family="Inter, Helvetica Neue, Arial, sans-serif" font-size="16" font-weight="500" letter-spacing="2.2">α LYRAE</text>
  </g>
</svg>
